HIERARCHY
ROOT hip
{
  OFFSET 0 0 0
  CHANNELS 6 Xposition Yposition Zposition Zrotation Yrotation Xrotation
  JOINT abdomen
  {
    OFFSET 0 20.6881 -0.73152
    CHANNELS 3 Zrotation Xrotation Yrotation
    JOINT chest
    {
      OFFSET 0 11.7043 -0.48768
      CHANNELS 3 Zrotation Xrotation Yrotation
      JOINT neck
      {
        OFFSET 0 22.1894 -2.19456
        CHANNELS 3 Zrotation Xrotation Yrotation
        JOINT head
        {
          OFFSET -0.24384 7.07133 1.2192
          CHANNELS 3 Zrotation Xrotation Yrotation
          JOINT leftEye
          {
            OFFSET 4.14528 8.04674 8.04672
            CHANNELS 3 Zrotation Xrotation Yrotation
            End Site
            {
              OFFSET 1 0 0
            }
          }
          JOINT rightEye
          {
            OFFSET -3.6576 8.04674 8.04672
            CHANNELS 3 Zrotation Xrotation Yrotation
            End Site
            {
              OFFSET 1 0 0
            }
          }
        }
      }
      JOINT rCollar
      {
        OFFSET -2.68224 19.2634 -4.8768
        CHANNELS 3 Zrotation Xrotation Yrotation
        JOINT rShldr
        {
          OFFSET -8.77824 -1.95073 1.46304
          CHANNELS 3 Zrotation Xrotation Yrotation
          JOINT rForeArm
          {
            OFFSET -28.1742 -1.7115 0.48768
            CHANNELS 3 Zrotation Xrotation Yrotation
            JOINT rHand
            {
              OFFSET -22.5879 0.773209 7.07136
              CHANNELS 3 Zrotation Xrotation Yrotation
              JOINT rThumb1
              {
                OFFSET -1.2192 -0.487915 3.41376
                CHANNELS 3 Zrotation Xrotation Yrotation
                JOINT rThumb2
                {
                  OFFSET -3.37035 -0.52449 3.41376
                  CHANNELS 3 Zrotation Xrotation Yrotation
                  End Site
                  {
                    OFFSET -1.78271 -1.18214 1.43049
                  }
                }
              }
              JOINT rIndex1
              {
                OFFSET -7.75947 0.938293 5.60832
                CHANNELS 3 Zrotation Xrotation Yrotation
                JOINT rIndex2
                {
                  OFFSET -2.54057 -0.884171 1.56538
                  CHANNELS 3 Zrotation Xrotation Yrotation
                  End Site
                  {
                    OFFSET -1.62519 -0.234802 1.16502
                  }
                }
              }
              JOINT rMid1
              {
                OFFSET -8.24714 1.18213 3.41376
                CHANNELS 3 Zrotation Xrotation Yrotation
                JOINT rMid2
                {
                  OFFSET -3.10165 -0.590103 1.0647
                  CHANNELS 3 Zrotation Xrotation Yrotation
                  End Site
                  {
                    OFFSET -2.48547 -0.328903 0.83742
                  }
                }
              }
              JOINT rRing1
              {
                OFFSET -8.82822 0.546677 1.51678
                CHANNELS 3 Zrotation Xrotation Yrotation
                JOINT rRing2
                {
                  OFFSET -2.60934 -0.819778 -0.0198488
                  CHANNELS 3 Zrotation Xrotation Yrotation
                  End Site
                  {
                    OFFSET -2.33842 -0.294052 0.168128
                  }
                }
              }
              JOINT rPinky1
              {
                OFFSET -8.27202 -0.0477905 -0.4584
                CHANNELS 3 Zrotation Xrotation Yrotation
                JOINT rPinky2
                {
                  OFFSET -1.82734 -0.647385 -0.700984
                  CHANNELS 3 Zrotation Xrotation Yrotation
                  End Site
                  {
                    OFFSET -1.69225 -0.51767 -0.607171
                  }
                }
              }
            }
          }
        }
      }
      JOINT lCollar
      {
        OFFSET 2.68224 19.2634 -4.8768
        CHANNELS 3 Zrotation Xrotation Yrotation
        JOINT lShldr
        {
          OFFSET 8.77824 -1.95073 1.46304
          CHANNELS 3 Zrotation Xrotation Yrotation
          JOINT lForeArm
          {
            OFFSET 28.1742 -1.7115 0.48768
            CHANNELS 3 Zrotation Xrotation Yrotation
            JOINT lHand
            {
              OFFSET 22.5879 0.773209 7.07136
              CHANNELS 3 Zrotation Xrotation Yrotation
              JOINT lThumb1
              {
                OFFSET 1.2192 -0.487915 3.41376
                CHANNELS 3 Zrotation Xrotation Yrotation
                JOINT lThumb2
                {
                  OFFSET 3.37035 -0.52449 3.41376
                  CHANNELS 3 Zrotation Xrotation Yrotation
                  End Site
                  {
                    OFFSET 1.78271 -1.18214 1.43049
                  }
                }
              }
              JOINT lIndex1
              {
                OFFSET 7.75947 0.938293 5.60832
                CHANNELS 3 Zrotation Xrotation Yrotation
                JOINT lIndex2
                {
                  OFFSET 2.54057 -0.884171 1.56538
                  CHANNELS 3 Zrotation Xrotation Yrotation
                  End Site
                  {
                    OFFSET 1.62519 -0.234802 1.16502
                  }
                }
              }
              JOINT lMid1
              {
                OFFSET 8.24714 1.18213 3.41376
                CHANNELS 3 Zrotation Xrotation Yrotation
                JOINT lMid2
                {
                  OFFSET 3.10165 -0.590103 1.0647
                  CHANNELS 3 Zrotation Xrotation Yrotation
                  End Site
                  {
                    OFFSET 2.48547 -0.328903 0.83742
                  }
                }
              }
              JOINT lRing1
              {
                OFFSET 8.82822 0.546677 1.51678
                CHANNELS 3 Zrotation Xrotation Yrotation
                JOINT lRing2
                {
                  OFFSET 2.60934 -0.819778 -0.0198488
                  CHANNELS 3 Zrotation Xrotation Yrotation
                  End Site
                  {
                    OFFSET 2.33842 -0.294052 0.168128
                  }
                }
              }
              JOINT lPinky1
              {
                OFFSET 8.27202 -0.0477905 -0.4584
                CHANNELS 3 Zrotation Xrotation Yrotation
                JOINT lPinky2
                {
                  OFFSET 1.82734 -0.647385 -0.700984
                  CHANNELS 3 Zrotation Xrotation Yrotation
                  End Site
                  {
                    OFFSET 1.69225 -0.51767 -0.607171
                  }
                }
              }
            }
          }
        }
      }
    }
  }
  JOINT rButtock
  {
    OFFSET -8.77824 4.35084 1.2192
    CHANNELS 3 Zrotation Xrotation Yrotation
    JOINT rThigh
    {
      OFFSET 0 -1.70687 -2.19456
      CHANNELS 3 Zrotation Xrotation Yrotation
      JOINT rShin
      {
        OFFSET 0 -36.8199 0.73152
        CHANNELS 3 Zrotation Xrotation Yrotation
        JOINT rFoot
        {
          OFFSET 0.73152 -45.1104 -5.12064
          CHANNELS 3 Zrotation Xrotation Yrotation
          End Site
          {
            OFFSET -1.1221 -3.69964 12.103
          }
        }
      }
    }
  }
  JOINT lButtock
  {
    OFFSET 8.77824 4.35084 1.2192
    CHANNELS 3 Zrotation Xrotation Yrotation
    JOINT lThigh
    {
      OFFSET 0 -1.70687 -2.19456
      CHANNELS 3 Zrotation Xrotation Yrotation
      JOINT lShin
      {
        OFFSET 0 -36.8199 0.73152
        CHANNELS 3 Zrotation Xrotation Yrotation
        JOINT lFoot
        {
          OFFSET -0.73152 -45.1104 -5.12064
          CHANNELS 3 Zrotation Xrotation Yrotation
          End Site
          {
            OFFSET 1.1221 -3.69964 12.103
          }
        }
      }
    }
  }
}
MOTION
Frames:	4
Frame Time:	0.03333
0.0 0.0 0.0 0.0 0.0 0.0 0.0 0.0 0.0 0.0 0.0 0.0 0.0 0.0 0.0 0.0 0.0 0.0 0.0 0.0 0.0 0.0 0.0 0.0 0.0 0.0 0.0 0.0 0.0 0.0 0.0 0.0 0.0 0.0 0.0 0.0 0.0 0.0 0.0 0.0 0.0 0.0 0.0 0.0 0.0 0.0 0.0 0.0 0.0 0.0 0.0 0.0 0.0 0.0 0.0 0.0 0.0 0.0 0.0 0.0 0.0 0.0 0.0 0.0 0.0 0.0 0.0 0.0 0.0 0.0 0.0 0.0 0.0 0.0 0.0 0.0 0.0 0.0 0.0 0.0 0.0 0.0 0.0 0.0 0.0 0.0 0.0 0.0 0.0 0.0 0.0 0.0 0.0 0.0 0.0 0.0 0.0 0.0 0.0 0.0 0.0 0.0 0.0 0.0 0.0 0.0 0.0 0.0 0.0 0.0 0.0 0.0 0.0 0.0 0.0 0.0 0.0 0.0 0.0 0.0 0.0 0.0 0.0 0.0 0.0 0.0 0.0 0.0 0.0 0.0 0.0 0.0
0.0986 62.038000000000004 0.1109 179.731745 32.186531 179.027289 -3.90107 1.896579 87.277574 6.13254 3.913862 -43.735375 -0.340618 0.638356 -162.347453 -38.048281 34.456961 -113.396163 140.173756 -23.582002 59.904944 -39.94746 5.576294 -15.263829 -79.916246 -44.234995 174.896042 12.607533 -29.318916 1.684596 -169.853979 -79.956884 -0.227228 160.562535 -51.213969 75.874885 -4.19428 1.180473 39.169419 -18.176868 38.517169 -156.197286 32.91359 -35.008511 -78.314696 41.049572 -20.082988 128.642147 157.286182 13.030136 -105.721179 164.321552 -22.075022 127.907281 -92.945913 28.014828 -98.652546 27.750717 22.793773 0.422488 -130.522744 13.243402 -71.298395 -158.009659 -7.908583 -134.22259 83.045988 -31.484211 -161.464779 -8.665917 -4.228223 -12.15607 21.39064 79.569857 171.949476 -18.194391 -34.436831 24.237106 165.949138 14.053893 -83.064002 55.518962 -83.543637 46.505318 -59.421137 -42.883601 -47.613629 172.249533 10.657249 -112.565789 164.894528 24.386382 -100.927213 -3.317644 -19.396387 -23.175006 -89.570703 -23.263154 76.551144 -101.514793 74.509821 81.105531 -37.060036 -13.566215 99.977614 136.287336 -12.943635 133.514449 53.004373 -1.373319 82.747605 -6.643492 53.90568 -21.064477 6.644212 -2.474663 85.39787 61.985275 -37.408455 -107.382915 -50.970101 1.011497 -80.765044 10.980586 49.586369 56.894859 6.916815 1.721522 87.703002 34.621739 75.729194 -43.841394
-0.3202 68.11840000000001 -0.559 -21.821468 81.992668 -19.230716 -6.199805 6.691604 70.494524 0.500352 -10.0168 -68.997063 -10.157011 27.216572 -142.117409 21.777398 35.549168 119.076238 12.598824 -0.819031 -7.40917 -15.2292 0.036784 -0.275149 -151.76483 23.838138 151.487648 -67.82399 28.490857 40.419156 16.88552 -12.033228 -69.156292 176.540638 -3.953169 143.823426 -49.381049 39.201954 21.502612 50.941045 -27.672596 5.932773 -48.460325 42.50133 41.619858 -3.047147 0.585564 -12.277319 -18.960779 31.763268 16.415184 -98.603837 76.579937 97.406276 -2.189537 -16.897219 1.454312 15.435405 37.888521 -2.783211 -25.347285 -47.538003 -10.847639 4.977061 34.204628 3.947553 155.37271 -47.040046 -170.930123 -151.487356 0.845648 146.928629 -175.402875 20.892746 -115.220254 -175.947535 -0.153089 -141.389277 161.761599 -7.872052 -95.442586 -15.557523 -36.195656 -15.393326 166.17508 -51.491421 -129.501847 -10.945145 64.559505 8.412119 33.975478 40.94697 -26.613105 3.20884 27.288227 -3.848338 4.833088 -59.882589 9.588116 146.825077 20.295677 -159.885037 160.175176 -17.939902 159.341637 7.921646 -37.804714 -14.480079 157.929537 84.776999 22.27145 158.450704 55.98388 -162.076922 -13.345281 -46.092812 -140.579125 176.638381 -61.08875 70.856289 49.206814 33.407971 56.626229 -62.959089 -3.721105 -99.526114 -40.17228 28.050743 118.772079 29.276744 -34.638374 -45.193565
-0.5063 75.7621 -0.3369 -39.336744 82.455455 -39.272996 -0.569269 1.204742 172.40148 -3.933165 -3.103196 -163.468254 7.046789 22.716348 101.520879 -29.813275 14.026203 -130.542965 42.799735 -5.608446 -14.248712 -5.534994 0.355533 -7.344871 -106.008674 -78.452692 -131.10743 -52.590079 -33.11788 -65.555028 126.289222 41.057723 -115.890502 -87.411459 79.824117 71.133869 -173.388167 1.118422 94.058103 71.916322 -65.163059 68.949283 -172.606314 -34.463172 121.292752 7.664061 15.55506 19.221737 -167.42963 16.227768 136.664151 -4.674754 -2.932451 3.970644 -21.772254 13.814138 6.270499 22.299448 13.910407 20.197712 -160.872216 -16.046602 -150.615787 -33.188098 -78.544356 -22.519899 -12.252529 -40.185887 -0.74839 92.540722 -23.014816 146.81001 -2.949693 4.433786 62.456372 -163.876995 -28.364638 -139.76574 -11.35946 -9.804861 0.645656 110.69581 22.70341 -107.984896 148.125676 -41.083428 -138.393842 -22.167158 66.699982 -8.498621 -5.289149 -54.694562 4.184038 34.914946 63.785404 -33.548956 -8.763507 -21.828349 -4.697359 177.919494 -35.863282 -179.593424 118.276621 -62.861724 116.962449 164.479861 -0.856747 -176.126771 142.357926 78.986802 35.646638 178.687357 59.695001 -0.891481 -9.573472 55.389778 -160.649513 -82.597885 39.055153 -172.149344 47.268519 21.709386 49.763364 -51.371123 -4.904059 -87.479798 -35.187074 34.721007 132.818494 13.680461 -44.697332 -70.812613
